/* XPM */
static char * collectibles_xpm[] = {
"50 50 189 2",
"  	c #FFFFFF",
". 	c #FEFEFE",
"+ 	c #FCFCFC",
"@ 	c #F6F6F6",
"# 	c #EFEFEF",
"$ 	c #EBEBEB",
"% 	c #EAEAEA",
"& 	c #F4F4F4",
"* 	c #F8F8F8",
"= 	c #FAFAFA",
"- 	c #FBFBFB",
"; 	c #F7F7F7",
"> 	c #E0E0E0",
", 	c #C1C1C1",
"' 	c #A7A7A7",
") 	c #9C9C9C",
"! 	c #999999",
"~ 	c #9B9B9B",
"{ 	c #A1A1A1",
"] 	c #AEAEAE",
"^ 	c #B8B8B8",
"/ 	c #BEBEBE",
"( 	c #C7C7C7",
"_ 	c #DCDCDC",
": 	c #F0F0F0",
"< 	c #F3F3F3",
"[ 	c #CCCCCC",
"} 	c #8F8F8F",
"| 	c #575757",
"1 	c #3B3B3B",
"2 	c #353535",
"3 	c #383838",
"4 	c #404040",
"5 	c #454545",
"6 	c #414141",
"7 	c #424242",
"8 	c #646464",
"9 	c #979797",
"0 	c #C8C8C8",
"a 	c #747474",
"b 	c #2A2A2A",
"c 	c #0C0C0C",
"d 	c #0F0F0F",
"e 	c #101010",
"f 	c #0E0E0E",
"g 	c #060606",
"h 	c #020202",
"i 	c #010101",
"j 	c #232323",
"k 	c #626262",
"l 	c #9D9D9D",
"m 	c #CACACA",
"n 	c #FDFDFD",
"o 	c #878787",
"p 	c #090909",
"q 	c #2F2F2F",
"r 	c #4C4C4C",
"s 	c #545454",
"t 	c #535353",
"u 	c #4D4D4D",
"v 	c #363636",
"w 	c #121212",
"x 	c #000000",
"y 	c #343434",
"z 	c #676767",
"A 	c #B7B7B7",
"B 	c #EDEDED",
"C 	c #F9F9F9",
"D 	c #C5C5C5",
"E 	c #272727",
"F 	c #787878",
"G 	c #B0B0B0",
"H 	c #BDBDBD",
"I 	c #636363",
"J 	c #0D0D0D",
"K 	c #070707",
"L 	c #040404",
"M 	c #191919",
"N 	c #767676",
"O 	c #D5D5D5",
"P 	c #F2F2F2",
"Q 	c #AFAFAF",
"R 	c #434343",
"S 	c #080808",
"T 	c #ECECEC",
"U 	c #CECECE",
"V 	c #A2A2A2",
"W 	c #7D7D7D",
"X 	c #666666",
"Y 	c #313131",
"Z 	c #C2C2C2",
"` 	c #E7E7E7",
" .	c #333333",
"..	c #A6A6A6",
"+.	c #F5F5F5",
"@.	c #DEDEDE",
"#.	c #C3C3C3",
"$.	c #7E7E7E",
"%.	c #2C2C2C",
"&.	c #444444",
"*.	c #818181",
"=.	c #1D1D1D",
"-.	c #A9A9A9",
";.	c #3D3D3D",
">.	c #050505",
",.	c #B2B2B2",
"'.	c #D6D6D6",
").	c #222222",
"!.	c #212121",
"~.	c #737373",
"{.	c #D2D2D2",
"].	c #B1B1B1",
"^.	c #D4D4D4",
"/.	c #757575",
"(.	c #D7D7D7",
"_.	c #797979",
":.	c #202020",
"<.	c #727272",
"[.	c #D1D1D1",
"}.	c #464646",
"|.	c #B5B5B5",
"1.	c #848484",
"2.	c #282828",
"3.	c #1B1B1B",
"4.	c #C9C9C9",
"5.	c #373737",
"6.	c #515151",
"7.	c #BCBCBC",
"8.	c #E9E9E9",
"9.	c #9A9A9A",
"0.	c #B9B9B9",
"a.	c #E4E4E4",
"b.	c #5B5B5B",
"c.	c #C4C4C4",
"d.	c #F1F1F1",
"e.	c #AAAAAA",
"f.	c #3F3F3F",
"g.	c #3A3A3A",
"h.	c #D8D8D8",
"i.	c #656565",
"j.	c #505050",
"k.	c #707070",
"l.	c #CBCBCB",
"m.	c #616161",
"n.	c #131313",
"o.	c #565656",
"p.	c #C0C0C0",
"q.	c #BBBBBB",
"r.	c #4B4B4B",
"s.	c #0B0B0B",
"t.	c #5F5F5F",
"u.	c #CDCDCD",
"v.	c #A3A3A3",
"w.	c #1F1F1F",
"x.	c #DDDDDD",
"y.	c #555555",
"z.	c #DADADA",
"A.	c #1E1E1E",
"B.	c #8E8E8E",
"C.	c #303030",
"D.	c #0A0A0A",
"E.	c #6E6E6E",
"F.	c #4F4F4F",
"G.	c #595959",
"H.	c #4E4E4E",
"I.	c #030303",
"J.	c #252525",
"K.	c #A8A8A8",
"L.	c #D0D0D0",
"M.	c #B3B3B3",
"N.	c #909090",
"O.	c #E1E1E1",
"P.	c #717171",
"Q.	c #3C3C3C",
"R.	c #3E3E3E",
"S.	c #858585",
"T.	c #161616",
"U.	c #171717",
"V.	c #898989",
"W.	c #CFCFCF",
"X.	c #E8E8E8",
"Y.	c #C6C6C6",
"Z.	c #989898",
"`.	c #292929",
" +	c #E3E3E3",
".+	c #A5A5A5",
"++	c #868686",
"@+	c #7A7A7A",
"#+	c #DFDFDF",
"                                                                                                    ",
"                                                                                                    ",
"                                                                                                    ",
"                                                                                                    ",
"                                                                                                    ",
"                                                                                                    ",
"                                      . . . . .                                                     ",
"                                  + @ # $ % $ # & * = - .                                           ",
"                              . ; > , ' ) ! ~ { ] ^ / ( _ : + .                                     ",
"                            . < [ } | 1 2 2 2 3 4 5 6 7 8 9 [ $ = .                                 ",
"                            @ 0 a b c c d e e f g g h i g j k l m % -                               ",
"                          n > o j h p q r s t u v w x x x x w y z A B .                             ",
"                          C D s g h E F G / H A l I E J g K g L M N O +                             ",
"                          P Q R S M z D P = = * T U V W X t Y d p t Z =                             ",
"                        . ` 9  .e 5 ..B .       . + +.$ @.#.$.%.L &.A C                             ",
"                        + _ *.E =.z 0 =                 n < -.;.>.7 ,.C                             ",
"                        + '.F ).!.~.{.+                   * ].6 >.6 ].*                             ",
"                        + ^.N ).)./.^.+                   * ].6 >.6 ].*                             ",
"                        + ^.N ).!./.^.+                   ; Q 4 >.7 ,.C                             ",
"                        + (._.j :.<.[.+                   & -.;.g }.|.C                             ",
"                        + @.1.2.3.X 4.-                 . B l 5.f 6.7.=                             ",
"                        . 8.9.v p u 0.@                 n a.} q w b.c.=                             ",
"                        . d.e.f.f g.~ 8..               + h.F !.M i.m -                             ",
"                          ; 0.j.e M k.O +               - l.m.n.n.k l.-                             ",
"                          C c.o.p p t p.;               * q.r.K s.t.u.-                             ",
"                          + '.N =.n.}.v.% .           . # v.g.K w.$.x.n                             ",
"                          . $ ] y.:.!.X q.: .         n z._.A.S ;...# .                             ",
"                            = x.B.C.D.j E.p.B C + + - # A F.S D.G.D C                               ",
"                            . P A H.K I.J.E.K.D L.[.4.M.*.v S C.N.O.n                               ",
"                              + @.} v e S E &.I P.<.X u Q.).R.S.U @                                 ",
"                                @ O 9.k v T.D.3.:.:.3.p U.;.V.W.+..                                 ",
"                                  C X.Y.Z.k f.`.j j 2.3 u V.l.P .                                   ",
"                                    . @  +D .+++@+_.1.) M.^.: n                                     ",
"                                        . ; T #+(.(.@.8.d.C n                                       ",
"                                            . n + + + . .                                           ",
"                                                                                                    ",
"                                                                                                    ",
"                                                                                                    ",
"                                                                                                    ",
"                                                                                                    ",
"                                                                                                    ",
"                                                                                                    ",
"                                                                                                    ",
"                                                                                                    ",
"                                                                                                    ",
"                                                                                                    ",
"                                                                                                    ",
"                                                                                                    ",
"                                                                                                    ",
"                                                                                                    "};
