/* XPM */
static char * exit_open_xpm[] = {
"50 50 6 1",
" 	c #000000",
".	c #F9F2F2",
"+	c #C3CFD4",
"@	c #4D4B4B",
"#	c #B7C6C7",
"$	c #242323",
"                                                  ",
"..................................................",
"..................................................",
"..................................................",
"                                                  ",
"++++++++++++++++++++++++++++++++++++++++++++++++++",
"+++                                             ++",
"+++ @@ ##################################### @@ ++",
"+++ @@ ##################################### @@ ++",
"+++ @@ ##################################### @@ ++",
"+++ @@ ##################################### @@ ++",
"+++ @@ ##################################### @@ ++",
"+++ @@ ##################################### @@ ++",
"+++ @@ ##################################### @@ ++",
"+++ @@ ##################################### @@ ++",
"+++ @@ ##################################### @@ ++",
"+++ @@ ##################################### @@ ++",
"+++ @@ ##################################### @@ ++",
"+++ @@ ##################################### @@ ++",
"+++ @@ ##################################### @@ ++",
"+++ @@ ##################################### @@ ++",
"+++ @@ ##################################### @@ ++",
"+++ @@ ##################################### @@ ++",
"+++ @@ ##################################### @@ ++",
"+++ @@ ##################################### @@ ++",
"+++ @@ ##################################### @@ ++",
"+++ @@ ##################################### @@ ++",
"+++ @@ ##################################### @@ ++",
"+++ @@ ##################################### @@ ++",
"+++ @@ ##################################### @@ ++",
"+++ @@ ##################################### @@ ++",
"+++ @@ ##################################### @@ ++",
"+++ @@ ##################################### @@ ++",
"+++ @@ ##################################### @@ ++",
"+++ @@ ##################################### @@ ++",
"    @$ ##################################### $@   ",
" @@ @$ ##################################### $@ @ ",
" @@ @$ ##################################### $@ @ ",
" @@ @$ ##################################### $@ @ ",
" @@ @$ ##################################### $@ @ ",
" @@ @$ ##################################### $@ @ ",
" @@ @$ ##################################### $@ @ ",
" @@ @$ ##################################### $@ @ ",
" @@ @$ ##################################### $@ @ ",
" @@ @$ ##################################### $@ @ ",
" @@ @$ ##################################### $@ @ ",
" @@ @$ ##################################### $@ @ ",
" @@ @$ ##################################### $@ @ ",
" @@ @@ ##################################### @@ @ ",
"                                                  "};
