/* XPM */
static char * floor_xpm[] = {
"50 50 5 1",
" 	c #000000",
".	c #B7C6C7",
"+	c #202424",
"@	c #080A0A",
"#	c #121515",
"                                                  ",
" ................................................ ",
" .+............................................@. ",
" ................................................ ",
" ................................................ ",
" ................................................ ",
" ................................................ ",
" ................................................ ",
" ................................................ ",
" ................................................ ",
" ................................................ ",
" ................................................ ",
" ................................................ ",
" ................................................ ",
" ................................................ ",
" ................................................ ",
" ................................................ ",
" ................................................ ",
" ................................................ ",
" ................................................ ",
" ................................................ ",
" ................................................ ",
" ................................................ ",
" ................................................ ",
" ................................................ ",
" ................................................ ",
" ................................................ ",
" ................................................ ",
" ................................................ ",
" ................................................ ",
" ................................................ ",
" ................................................ ",
" ................................................ ",
" ................................................ ",
" ................................................ ",
" ................................................ ",
" ................................................ ",
" ................................................ ",
" ................................................ ",
" ................................................ ",
" ................................................ ",
" ................................................ ",
" ................................................ ",
" ................................................ ",
" ................................................ ",
" ................................................ ",
" ................................................ ",
" .+............................................#. ",
" ................................................ ",
"                                                  "};
