/* XPM */
static char * front_wall_axe_xpm[] = {
"50 50 18 1",
" 	c #000000",
".	c #F9F2F2",
"+	c #C3CFD4",
"@	c #383737",
"#	c #6A6A6A",
"$	c #FFFFFF",
"%	c #B8B8B8",
"&	c #134218",
"*	c #A05F20",
"=	c #4F2C0A",
"-	c #979797",
";	c #1F2C10",
">	c #888888",
",	c #626060",
"'	c #4D4B4B",
")	c #B30E0E",
"!	c #123017",
"~	c #060906",
"                                                  ",
"..................................................",
"..................................................",
"..................................................",
"                                                  ",
"++++++++++++++++++++++++++++++++++++++++++++++++++",
"++++++++++++++++++++++++++++++++++++++++++++++++++",
"++++@@@@@@@@@@@@@@@@@@@@@@@@@@@@@@@@@@@@@@@@@@++++",
"++++@@#@@@@@@@@@@@@@@@@@@@@@@@@@@@@@@@@@@@@#@@++++",
"++++@##@@@@@@@@@@@@@@@@@@@@@@@@@@@@@@@@@@@@##@++++",
"++++@@@@@       @@@@@@@$$$$$$$$$$$$$$$$$$@@@@@++++",
"++++@@@@ %%%%%%% @@@@@@$&&&&&&&&&&&&&&&&$@@@@@++++",
"++++@@@ %%%%%%%% @@@@@@$&$$&$&&&$&$&$$$&$@@@@@++++",
"++++@@@ %%%%%%%% @@@@@@$&$&&&$&$&&$&&$&&$@@@@@++++",
"++++@@@  ***%%%% @@@@@@$&$$&&&$&&&$&&$&&$@@@@@++++",
"++++@@@ ==*==--- @@@@@@$&$&&&$&$&&$&&$&&$@@@@@++++",
"++++@@@  =*==   @@@@@@@$&$$&$&&&$&$&&$&&$@@@@@++++",
"++++@@@@ =*== @@@@@@@@@$&&&&&&&&&&&&&&&&$@@@@@++++",
"++++@@@@ **   @@@@@@@@@$$$$$$$$$$$$$$$$$$@@@@@++++",
"++++@@@@ **   @@@@@@@@@@@@@@@@@@@@@@@@@@@@@@@@++++",
"++++@@@@ ** @@@@@@@@@@@@@@@@@@@@@@@@@@@@@@@@@@++++",
"++++@@@@ ** @@@@@@@@@@@@@@@@@@@@@@@@@@@@@@@@@@++++",
"++++@@@@ ** @@@@@@@@@@@@@@@@@@;-------->@@@@@@++++",
"++++@@@@ ** @@@@@@@@@@@@@@@@@@;-------->@@@@@@++++",
"++++@@@@ ** @@@@@@@@@@@@@@@@@@;-,-,,,-->@@@@@@++++",
"++++@@@@ ** @@@@@@@@@@@@@@@@@@;-,------>;@@@@@++++",
"++++@@@@ ** @@@@@@@@@@@@@@@@@@;-,-,,,--;;@@@@@++++",
"++++@##@    @@@@@@@@@@@@@@@@@;;-,---;;;;;@@##@++++",
"++++@@#@@@@@@@@@@@@@@@@@@@@@@;--,-,,,-->;@@#@@++++",
"++++@@@@@@@@@@@@@@@@@@@@@@@@@;;-------->;;@@@@++++",
"++++++++++++++++++++++++++++++;-,,,,,-->+;++++++++",
"+++++++++++++++++++++++++++++;;-------->;;++++++++",
"+++++++++++++++++++++++++++++;--,---,-->;;++++++++",
"''''''''''''''''''''''''''''';;-------->';''''''''",
"++++++++++++++++++++++++++++++;--------);;++++++++",
"    !                        ;       !  ;         ",
" '''''''''''''''''''''''''''''''''''''''''''''''' ",
" '''''''''''''''''''''''''''''''''''''''''''''''' ",
" '''''''''''''''''''''''''''''''''''''''''''''''' ",
" '''''''''''''''''''''''''''''''''''''''''''''''' ",
" '''''''''''''''''''''''''''''''''''''''''''''''' ",
" '''''''''''''''''''''''''''''''''''''''''''''''' ",
" '''''''''''''''''''''''''''''''''''''''''''''''' ",
" '''''''''''''''''''''''''''''''''''''''''''''''' ",
" '''''''''''''''''''''''''''''''''''''''''''''''' ",
" '''''''''''''''''''''''''''''''''''''''''''''''' ",
" '''''''''''''''''''''''''''''''''''''''''''''''' ",
" '''''''''''''''''''''''''''''''''''''''''''''''' ",
" '''''''''''''''''''''''''''''''''''''''''''''''' ",
"   !                        !          ! ~        "};
