/* XPM */
static char * right_corner_xpm[] = {
"50 50 23 1",
" 	c #060606",
".	c #000000",
"+	c #FFFFFF",
"@	c #FEFEFE",
"#	c #FDFDFD",
"$	c #080707",
"%	c #F9F2F2",
"&	c #1C1C1C",
"*	c #100F0F",
"=	c #0F0F0F",
"-	c #141517",
";	c #C3CFD4",
">	c #0A0A0C",
",	c #FEFFFF",
"'	c #010101",
")	c #4D4B4B",
"!	c #030303",
"~	c #FBFBFB",
"{	c #FCFCFC",
"]	c #F6F6F6",
"^	c #F7F7F7",
"/	c #111010",
"(	c #EAEAEA",
" .....++++++++++++++++++++++++++++++++++++++@@@###",
"$%%%%&+++++++++++++++++++++++++++++++++++++++++++#",
"*%%%%&+++++++++++++++++++++++++++++++++++++++++++#",
"=%%%%&+++++++++++++++++++++++++++++++++++++++++++#",
"......+++++++++++++++++++++++++++++++++++++++++++#",
"-;;;;-+++++++++++++++++++++++++++++++++++++++++++@",
"-;;;;>++++++++++++++++++++++++++++++++++++++++++++",
">;;;;>++++++++++++++++++++++++++++++++++++++++++++",
">;;;;>++++++++++++++++++++++++++++++++++++++++++++",
"-;;;;-+++++++++++++++++++++++++++++++++++++++++++@",
"-;;;;-++++++++++++++++++++++++++++++++++++++@++++@",
"-;;;;-++++++++++++++++++++++++++++++++++++++++++++",
"-;;;;-++++++++++++++++++++++++++++++++++++++++++++",
"-;;;;-++++++++++++++++++++++++++++++++++++++++++++",
"-;;;;-++++++++++++++++++++++++++++++++++++++++++++",
"-;;;;-++++++++++++++++++++++++++++++++++++++++++++",
"-;;;;-++++++++++++++++++++++++++++++++++++++++++++",
"-;;;;-++++++++++++++++++++++++++++++++++++++++++++",
"-;;;;-++++++++++++++++++++++++++++++++++++++++++++",
"-;;;;-++++++++++++++++++++++++++++++++++++++++++++",
"-;;;;-++++++++++++++++++++++++++++++++++++++@++++@",
"-;;;;-++++++++++++++++++++++++++++++++++++++@++++@",
"-;;;;-++++++++++++++++++++++++++++++++++++++++++++",
"-;;;;-++++++++++++++++++++++++++++++++++++++@++++@",
"-;;;;>++++++++++++++++++++++++++++++++++++++#,,,,#",
"-;;;;>++++++++++++++++++++++++++++++++++++++@++++@",
"-;;;;-++++++++++++++++++++++++++++++++++++++@++++@",
"-;;;;-++++++++++++++++++++++++++++++++++++++#,,,,#",
"-;;;;-++++++++++++++++++++++++++++++++++++++#,,,,#",
"-;;;;-++++++++++++++++++++++++++++++++++++++#,,,,#",
">;;;;>++++++++++++++++++++++++++++++++++++++#,,,,#",
">;;;;>++++++++++++++++++++++++++++++++++++++#,,,,#",
">;;;;-++++++++++++++++++++++++++++++++++++++#,,,,#",
"'))))!++++++++++++++++++++++++++++++++++++++#@@@@#",
">;;;;-++++++++++++++++++++++++++++++++++++++@++++@",
"......++++++++++++++++++++++++++++++++++++++######",
"!)))).++++++++++++++++++++++++++++++++++++++~{{{{~",
"$)))).++++++++++++++++++++++++++++++++++++++]^^^^]",
"/)))).++++++++++++++++++++++++++++++++++++++~{{{{~",
"/)))).++++++++++++++++++++++++++++++++++++++#@@@@#",
"/)))).++++++++++++++++++++++++++++++++++++++#@@@@#",
"/)))).++++++++++++++++++++++++++++++++++++++@++++@",
"/)))).++++++++++++++++++++++++++++++++++++++@++++@",
"/)))).++++++++++++++++++++++++++++++++++++++@++++@",
"/)))).++++++++++++++++++++++++++++++++++++++#@@@@#",
"/)))).++++++++++++++++++++++++++++++++++++++~{{{{~",
"/)))).++++++++++++++++++++++++++++++++++++++~{{{{~",
"/)))).++++++++++++++++++++++++++++++++++++++~{{{{~",
"/)))).++++++++++++++++++++++++++++++++++++++]^^^^]",
"......++++++++++++++++++++++++++++++++++++++(((((("};
