/* XPM */
static char * wall_indoor_alone_xpm[] = {
"50 50 7 1",
" 	c #000000",
".	c #343434",
"+	c #424242",
"@	c #34343C",
"#	c #010101",
"$	c #282727",
"%	c #B7C6C7",
"                                                  ",
" .++++++++++++++++++++++++++++++++++++++++++++++. ",
" +.++++++++++++++++++++++++++++++++++++++++++++.+ ",
" ++.++++++++++++++++++++++++++++++++++++++++++.++ ",
" +++                                          +++ ",
" +++                                          +++ ",
" +++  @@@@@@@@@@@@@@@@@@@@@@@@@@@@@@@@@@@@@   +++ ",
" +++  @@@@@@@@@@@@@@@@@@@@@@@@@@@@@@@@@@@@@   +++ ",
" +++  @@@@@@@@@@@@@@@@@@@@@@@@@@@@@@@@@@@@@   +++ ",
" +++  @@@@@@@@@@@@@@@@@@@@@@@@@@@@@@@@@@@@@   +++ ",
" +++  @@@@@@@@@@@@@@@@@@@@@@@@@@@@@@@@@@@@@   +++ ",
" +++  @@@@@@@@@@@@@@@@@@@@@@@@@@@@@@@@@@@@@   +++ ",
" +++  @@@@@@@@@@@@@@@@@@@@@@@@@@@@@@@@@@@@@   +++ ",
" +++  @@@@@@@@@@@@@@@@@@@@@@@@@@@@@@@@@@@@@   +++ ",
" +++  @@@@@@@@@@@@@@@@@@@@@@@@@@@@@@@@@@@@@   +++ ",
" +++  @@@@@@@@@@@@@@@@@@@@@@@@@@@@@@@@@@@@@   +++ ",
" +++  @@@@@@@@@@@@@@@@@@@@@@@@@@@@@@@@@@@@@   +++ ",
" +++  @@@@@@@@@@@@@@@@@@@@@@@@@@@@@@@@@@@@@   +++ ",
" +++  @@@@@@@@@@@@@@@@@@@@@@@@@@@@@@@@@@@@@   +++ ",
" +++  @@@@@@@@@@@@@@@@@@@@@@@@@@@@@@@@@@@@@   +++ ",
" +++  @@@@@@@@@@@@@@@@@@@@@@@@@@@@@@@@@@@@@   +++ ",
" +++  @@@@@@@@@@@@@@@@@@@@@@@@@@@@@@@@@@@@@   +++ ",
" +++  @@@@@@@@@@@@@@@@@@@@@@@@@@@@@@@@@@@@@   +++ ",
" +++  @@@@@@@@@@@@@@@@@@@@@@@@@@@@@@@@@@@@@   +++ ",
" +++  #####################################   +++ ",
" +++            #######          #########    +++ ",
" ++++++++++++++++++++++++++++++++++++++++++++++++ ",
" $$$$$$$$$$$$$$$$$$$$$$$$$$$$$$$$$$$$$$$$$$$$$$$$ ",
" ++++++++++++++++++++++++++++++++++++++++++++++++ ",
" ++++++++++++++++++++++++++++++++++++++++++++++++ ",
" ++++++++++++++++++++++++++++++++++++++++++++++++ ",
" ++++++++$$$$$$$$$$$$$$$$$$$$$$$$$$$$$$$$++++++++ ",
" ++++++++$$$$$$$$$$$$$$$$$$$$$$$$$$$$$$$$++++++++ ",
" ++++++++$$$$$$$$$$$$$$$$$$$$$$$$$$$$$$$$++++++++ ",
" ++++++++ %%%%%%%%%%%%%%%%%%%%%%%%%%%%%% ++++++++ ",
" ++++++++ %%%%%%%%%%%%%%%%%%%%%%%%%%%%%% ++++++++ ",
" ++++++++ %%%%%%%%%%%%%%%%%%%%%%%%%%%%%% ++++++++ ",
" ++++++++ %%%%%%%%%%%%%%%%%%%%%%%%%%%%%% ++++++++ ",
" ++++++++ %%%%%%%%%%%%%%%%%%%%%%%%%%%%%% ++++++++ ",
" ++++++++ %%%%%%%%%%%%%%%%%%%%%%%%%%%%%% ++++++++ ",
" ++++++++ %%%%%%%%%%%%%%%%%%%%%%%%%%%%%% ++++++++ ",
" ++++++++ %%%%%%%%%%%%%%%%%%%%%%%%%%%%%% ++++++++ ",
" ++++++++ %%%%%%%%%%%%%%%%%%%%%%%%%%%%%% ++++++++ ",
" ++++++++ %%%%%%%%%%%%%%%%%%%%%%%%%%%%%% ++++++++ ",
" ++++++++ %%%%%%%%%%%%%%%%%%%%%%%%%%%%%% ++++++++ ",
" ++++++++ %%%%%%%%%%%%%%%%%%%%%%%%%%%%%% ++++++++ ",
" ++++++++ %%%%%%%%%%%%%%%%%%%%%%%%%%%%%% ++++++++ ",
" ++++++++ %%%%%%%%%%%%%%%%%%%%%%%%%%%%%% ++++++++ ",
" ++++++++ %%%%%%%%%%%%%%%%%%%%%%%%%%%%%% ++++++++ ",
"                                                  "};
