/* XPM */
static char * top_exit_xpm[] = {
"50 50 6 1",
" 	c #000000",
".	c #B7C6C7",
"+	c #202424",
"@	c #080A0A",
"#	c #4D4B4B",
"$	c #121515",
"                                                  ",
" ................................................ ",
" .+............................................@. ",
" ................................................ ",
" ................................................ ",
" ................................................ ",
" ................................................ ",
" ................................................ ",
" ................................................ ",
" ................................................ ",
" ................................................ ",
" ................................................ ",
" ................................................ ",
" ................................................ ",
" ................................................ ",
" ................................................ ",
" ................................................ ",
" ................................................ ",
" ................................................ ",
" ................................................ ",
" ................................................ ",
" ................................................ ",
" ................................................ ",
" ................................................ ",
" ................................................ ",
" ................................................ ",
" ................................................ ",
" ................................................ ",
" ................................................ ",
" ................................................ ",
" ................................................ ",
" ................................................ ",
" ................................................ ",
" ................................................ ",
" ................................................ ",
" ................................................ ",
" ................................................ ",
" ................................................ ",
" ................................................ ",
" ................................................ ",
" ...    ......................................... ",
" ...    ..................................    ... ",
" ... ## .................................. ## ... ",
" ... ## .................................. ## ... ",
" ... ## .................................. ## ... ",
" ... ## .................................. ## ... ",
" ... ## .................................. ## ... ",
" .+. ## .................................. ## .$. ",
" ... ## .................................. ## ... ",
"     ## .................................. ##     "};
