/* XPM */
static char * wall_down_empty_xpm[] = {
"50 50 15 1",
" 	c #B7C6C7",
".	c #060606",
"+	c #000000",
"@	c #080707",
"#	c #F9F2F2",
"$	c #1C1C1C",
"%	c #100F0F",
"&	c #0F0F0F",
"*	c #141517",
"=	c #C3CFD4",
"-	c #0A0A0C",
";	c #010101",
">	c #4D4B4B",
",	c #030303",
"'	c #111010",
"                       .+++++                     ",
"                       @####$                     ",
"                       %####$                     ",
"                       &####$                     ",
"                       ++++++                     ",
"                       *====*                     ",
"                       *====-                     ",
"                       -====-                     ",
"                       -====-                     ",
"                       *====*                     ",
"                       *====*                     ",
"                       *====*                     ",
"                       *====*                     ",
"                       *====*                     ",
"                       *====*                     ",
"                       *====*                     ",
"                       *====*                     ",
"                       *====*                     ",
"                       *====*                     ",
"                       *====*                     ",
"                       *====*                     ",
"                       *====*                     ",
"                       *====*                     ",
"                       *====*                     ",
"                       *====-                     ",
"                       *====-                     ",
"                       *====*                     ",
"                       *====*                     ",
"                       *====*                     ",
"                       *====*                     ",
"                       -====-                     ",
"                       -====-                     ",
"                       -====*                     ",
"                       ;>>>>,                     ",
"                       -====*                     ",
"                       ++++++                     ",
"                       ,>>>>+                     ",
"                       @>>>>+                     ",
"                       '>>>>+                     ",
"                       '>>>>+                     ",
"                       '>>>>+                     ",
"                       '>>>>+                     ",
"                       '>>>>+                     ",
"                       '>>>>+                     ",
"                       '>>>>+                     ",
"                       '>>>>+                     ",
"                       '>>>>+                     ",
"                       '>>>>+                     ",
"                       '>>>>+                     ",
"                       ++++++                     "};
