/* XPM */
static char * back_wall_window_xpm[] = {
"50 50 14 1",
" 	c #000000",
".	c #F9F2F2",
"+	c #C3CFD4",
"@	c #4D4B4B",
"#	c #BEBEBE",
"$	c #85D7F9",
"%	c #F5F9F6",
"&	c #FEFBFB",
"*	c #050505",
"=	c #1E3A22",
"-	c #E91111",
";	c #514B4B",
">	c #FCF5F5",
",	c #9CA4A8",
"                                                  ",
"..................................................",
"..................................................",
"..................................................",
"                                                  ",
"++++++++++++++++++++++++++++++++++++++++++++++++++",
"+++++++++++++++++++++++++++++++++++++++@@@@@@@@@++",
"+++++++++++++++++++++++++++++++++++++++#+++++@+#++",
"+++++++++++++++++++++++++++++++++++++++######@##++",
"+++++++++++++++++++++++++++++++++++++++++++++@++++",
"+++++++++++++++++++++++++++++++++++++++++++++@++++",
"+++++++                                    +@@@@++",
"+++++++ $%%$$$%%%%%$$$$%%$$$%%$$$%%%%%%$%$ +@ &@++",
"+++++++                               *    +@@@@++",
"+++++++ %%%$$%%%%%%$$$%%%%$$$%%%%$$$%%%$$$ +@ &@++",
"+*****+                                    +@@@@++",
"+*@@@*+ ================================== +@ &@++",
"+*@-@*+                                    +@@;@++",
"+*@@@*+ ================================== +@ >@++",
"+*****+                                    +@@@@++",
"+++#+++ ================================== +#@##++",
"+++++++                                    ++@++++",
"+++++++,,,,,,,,,,,,,,,,,,,,,,,,,,,,,,,,,,,,++#++++",
"++++++++++++++++++++++++++++++++++++++++++++++++++",
"++++++++++++++++++++++++++++++++++++++++++++++++++",
"++++++++++++++++++++++++++++++++++++++++++++++++++",
"++++++++++++++++++++++++++++++++++++++++++++++++++",
"++++++++++++++++++++++++++++++++++++++++++++++++++",
"++++++++++++++++++++++++++++++++++++++++++++++++++",
"++++++++++++++++++++++++++++++++++++++++++++++++++",
"++++++++++++++++++++++++++++++++++++++++++++++++++",
"++++++++++++++++++++++++++++++++++++++++++++++++++",
"++++++++++++++++++++++++++++++++++++++++++++++++++",
"@@@@@@@@@@@@@@@@@@@@@@@@@@@@@@@@@@@@@@@@@@@@@@@@@@",
"++++++++++++++++++++++++++++++++++++++++++++++++++",
"                                                  ",
" @@@@@@@@@@@@@@@@@@@@@@@@@@@@@@@@@@@@@@@@@@@@@@@@ ",
" @@@@@@@@@@@@@@@@@@@@@@@@@@@@@@@@@@@@@@@@@@@@@@@@ ",
" @@@@@@@@@@@@@@@@@@@@@@@@@@@@@@@@@@@@@@@@@@@@@@@@ ",
" @@@@@@@@@@@@@@@@@@@@@@@@@@@@@@@@@@@@@@@@@@@@@@@@ ",
" @@@@@@@@@@@@@@@@@@@@@@@@@@@@@@@@@@@@@@@@@@@@@@@@ ",
" @@@@@@@@@@@@@@@@@@@@@@@@@@@@@@@@@@@@@@@@@@@@@@@@ ",
" @@@@@@@@@@@@@@@@@@@@@@@@@@@@@@@@@@@@@@@@@@@@@@@@ ",
" @@@@@@@@@@@@@@@@@@@@@@@@@@@@@@@@@@@@@@@@@@@@@@@@ ",
" @@@@@@@@@@@@@@@@@@@@@@@@@@@@@@@@@@@@@@@@@@@@@@@@ ",
" @@@@@@@@@@@@@@@@@@@@@@@@@@@@@@@@@@@@@@@@@@@@@@@@ ",
" @@@@@@@@@@@@@@@@@@@@@@@@@@@@@@@@@@@@@@@@@@@@@@@@ ",
" @@@@@@@@@@@@@@@@@@@@@@@@@@@@@@@@@@@@@@@@@@@@@@@@ ",
" @@@@@@@@@@@@@@@@@@@@@@@@@@@@@@@@@@@@@@@@@@@@@@@@ ",
"                                                  "};
