/* XPM */
static char * exit_xpm[] = {
"50 50 9 1",
" 	c #000000",
".	c #F9F2F2",
"+	c #C3CFD4",
"@	c #4D4B4B",
"#	c #B7C6C7",
"$	c #434343",
"%	c #292929",
"&	c #242323",
"*	c #383737",
"                                                  ",
"..................................................",
"..................................................",
"..................................................",
"                                                  ",
"++++++++++++++++++++++++++++++++++++++++++++++++++",
"+++                                             ++",
"+++ @@@@@@@@@@@@@@@@@@@@@ @@@@@@@@@@@@@@@@@@@@@ ++",
"+++ @@@@@@@@@@@@@@@@@@@@@ @@@@@@@@@@@@@@@@@@@@@ ++",
"+++ @@@@@@@@@@@@@@@@@@@@@ @@@@@@@@@@@@@@@@@@@@@ ++",
"+++ @@                                      @@@ ++",
"+++ @@ ################## ################# @@@ ++",
"+++ @@ ################## ################# @@@ ++",
"+++ @@ ################## ################# @@@ ++",
"+++ @@ ################## ################# @@@ ++",
"+++ @@ ################## ################# @@@ ++",
"+++ @@ ################## ################# @@@ ++",
"+++ @@ ################## ################# @@@ ++",
"+++ @@ ################## ################# @@@ ++",
"+++ @@ ################## ################# @@@ ++",
"+++ @@ ################## ################# @@@ ++",
"+++ @@                                      @@@ ++",
"+++ @@@@@@@@@@@@@@@@@@@@@ @@@@@@@@@@@@@@@@@@@@@ ++",
"+++ @@@@@@@@@@@@@@@@@@@@@ @@@@@@@@@@@@@@@@@@@@@ ++",
"+++ @@@@@@@@@@@@@@@@@@@@@ @@@@@@@@@@@@@@@@@@@@@ ++",
"+++ @@@@@@@@@@@@@@@@@@@@@ @@@@@@@@@@@@@@@@@@@@@ ++",
"+++ @@@@@@@@@@@@@@@@@@@@@ @@@@@@@@@@@@@@@@@@@@@ ++",
"+++ @@@@@@@@@@@@@@$$$$$@@ @@$$$$$@@@@@@@@@@@@@@ ++",
"+++ @@@@@@@@@@@@@@$% $$@@ @@$$ %$@@@@@@@@@@@@@@ ++",
"+++ @@@@@@@@@@@@@@$$$$$@@ @@$$$$$@@@@@@@@@@@@@@ ++",
"+++ @@@@@@@@@@@@@@$$$$$@@ @@$$$$$@@@@@@@@@@@@@@ ++",
"+++ @@@@@@@@@@@@@@@@@@@@@ @@@@@@@@@@@@@@@@@@@@@ ++",
"+++ @@@@@@@@@@@@@@@@@@@@@ @@@@@@@@@@@@@@@@@@@@@ ++",
"+++ @@@@@@@@@@@@@@@@@@@@@ @@@@@@@@@@@@@@@@@@@@@ ++",
"+++ @@@@@@@@@@@@@@@@@@@@@ @@@@@@@@@@@@@@@@@@@@@ ++",
"    @&&&&&&&&&&&&&&&&&&@@ @@&&&&&&&&&&&&&&&&&&@   ",
" @@ @&****************&@@ @@&****************&@ @ ",
" @@ @&&&&&&&&&&&&&&&&&&@@ @@&&&&&&&&&&&&&&&&&&@ @ ",
" @@ @&****************&@@ @@&****************&@ @ ",
" @@ @&&&&&&&&&&&&&&&&&&@@ @@&&&&&&&&&&&&&&&&&&@ @ ",
" @@ @&****************&@@ @@&****************&@ @ ",
" @@ @&&&&&&&&&&&&&&&&&&@@ @@&&&&&&&&&&&&&&&&&&@ @ ",
" @@ @&****************&@@ @@&****************&@ @ ",
" @@ @&&&&&&&&&&&&&&&&&&@@ @@&&&&&&&&&&&&&&&&&&@ @ ",
" @@ @&****************&@@ @@&****************&@ @ ",
" @@ @&&&&&&&&&&&&&&&&&&@@ @@&&&&&&&&&&&&&&&&&&@ @ ",
" @@ @&****************&@@ @@&****************&@ @ ",
" @@ @&&&&&&&&&&&&&&&&&&@@ @@&&&&&&&&&&&&&&&&&&@ @ ",
" @@ @@@@@@@@@@@@@@@@@@@@@ @@@@@@@@@@@@@@@@@@@@@ @ ",
"                                                  "};
