/* XPM */
static char * front_wall_window_xpm[] = {
"50 50 9 1",
" 	c #000000",
".	c #F9F2F2",
"+	c #C3CFD4",
"@	c #131515",
"#	c #97A1A2",
"$	c #87151F",
"%	c #F7FCFE",
"&	c #A9B4B8",
"*	c #4D4B4B",
"                                                  ",
"..................................................",
"..................................................",
"..................................................",
"                                                  ",
"++++++++++++++++++++++++++++++++++++++++++++++++++",
"++++++++++++++++++++++++++++++++++++++++++++++++++",
"++++++++++++++++++++++++++++++++++++++++++++++++++",
"++++++++++++++++++++++++++++++++++++++++++++++++++",
"++++++++++++++++++++++++++++++++++++++++++++++++++",
"++++++++++++++++++++++++++++++++++++++++++++++++++",
"+++++++ @@                                 +++++++",
"+++++++ ################################## +++++++",
"+++++++                                    +++++++",
"+++++++ ################################## +++++++",
"+++++++                                    +++++++",
"+++++++ ################################## +++++++",
"+++++++                                    +++++++",
"+++++++ ################################## +++++++",
"+++++++                                    +++++++",
"+++++++ ################################## +++++++",
"+++++++                                    +++++++",
"++++++++++++++++++++++++++++++++++++++++++++++++++",
"++++++++++++++++$$$$$$$$$$$$$$$$$$$$$$$$$$++++++++",
"++++++++++++++++$%%$%%$$%$%$%$%%%$%%%$%%%$++++++++",
"++++++++++++++++$%%$%%$$%$%$%$%%%$$%$$%%$$++++++++",
"++++++++++++++++$%$$%$%$%$$%$$%$%$$%$$%%%$++++++++",
"++++++++++++++++$$$$$$$$$$$$$$$$$$$$$$$$$$++++++++",
"++++++++++++++++&&&&&&&&&&&&&&&&&&&&&&&&&&++++++++",
"++++++++++++++++++++++++++++++++++++++++++++++++++",
"++++++++++++++++++++++++++++++++++++++++++++++++++",
"++++++++++++++++++++++++++++++++++++++++++++++++++",
"++++++++++++++++++++++++++++++++++++++++++++++++++",
"**************************************************",
"++++++++++++++++++++++++++++++++++++++++++++++++++",
"                                                  ",
" ************************************************ ",
" ************************************************ ",
" ************************************************ ",
" ************************************************ ",
" ************************************************ ",
" ************************************************ ",
" ************************************************ ",
" ************************************************ ",
" ************************************************ ",
" ************************************************ ",
" ************************************************ ",
" ************************************************ ",
" ************************************************ ",
"                                                  "};
