/* XPM */
static char * front_wall_sign_xpm[] = {
"50 50 10 1",
" 	c #000000",
".	c #F9F2F2",
"+	c #C3CFD4",
"@	c #989898",
"#	c #0F0C0C",
"$	c #757575",
"%	c #FFFFFF",
"&	c #9224CD",
"*	c #686666",
"=	c #4D4B4B",
"                                                  ",
"..................................................",
"..................................................",
"..................................................",
"                                                  ",
"++++++++++++++++++++++++++++++++++++++++++++++++++",
"+@@++++++++++++++++++++++++++++++++++++++++++++@@+",
"+@#$$$$$$$$$$$$$$$$$$$$$$$$$$$$$$$$$$$$$$$$$$$$#@+",
"+++$$$$$$$$$$$$$$$$$$$$$$$$$$$##$$$$$$$$$$$$$$$+++",
"+++$$##################$$$$$$#%%##$%%%%%%%%%%$$+++",
"+++$$#%%#%%#%%%%#%%#%%#$$$$$#%%%%%########$$$$$+++",
"+++$$#%%#%%#%%###%%#%%#$$$$$#%$%%%%%%%%%%#%%%$$+++",
"+++$$#%%%%%#%%###%%#%%#$$$$#%$$%&&&&&&&&&%#$$$$+++",
"+++$$#%%%%%#%%%%#%%#%%#$$$$#%$&&&&&&&&&&&&%#%$$+++",
"+++$$#%%%%%#%%###%%#%%#$$$$#%&%&&&&&&&&&&&%#$$$+++",
"+++$$#%%%%%#%%###%%#%%###$$#&%%%%&&&&&&&&&%%#$$+++",
"+++$$#%%#%%#%%%%#%%%%%%%#$$$####%%&&&&&&&&&%#$$+++",
"+++$$#%%#%%#%%%%#%%%%%%%#$$$$$$$##%&&&&&&&%#%$$+++",
"+++$$####################$$$$$$$$#%%&&&&&&%#$$$+++",
"+++$$$$$$$$$$$####$$#############$##%%&&&%%#%$$+++",
"+++$$$$$$$$$$$#%%#$$#%%%%%%#%%%%%#$$##%%%##$$$$+++",
"+++$$$$$$$$$$$#%%#$$#%%%%%%#%%%%%#$$$$###$$%%$$+++",
"+++$$$$$$$$$$$#%%#$$#%%%%%%#%%%%%#$$$$$$$$$$$$$+++",
"+++$$$$$$$$$$$#%%#$$#%%%%%%#%%%%%#$%%%%%%%%%%$$+++",
"+++$$$$$$$$$$$#%%####%%##%%#%%%%##$$$$$$$$$$$$$+++",
"+++$$$$$$$$$$$#%%%%%#%%%%%%#%%%%%#$%%%%%%%%%%$$+++",
"+++$$$$$$$$$$$#%%%%%#%%%%%%#%%%%%#$$$$$$$$$$$$$+++",
"+++$$$$$$$$$$$#%%%%%#%%##%%#%%%%%#$%%%%%%%%%%$$+++",
"+++$$$$$$$$$$$####################$$$$$$$$$$$$$+++",
"+++$$$$$$$$$$$$$$$$$$$$$$$$$$$$$$$$$$$$$$$$$$$$+++",
"+@#********************************************#@+",
"+@@++++++++++++++++++++++++++++++++++++++++++++@@+",
"++++++++++++++++++++++++++++++++++++++++++++++++++",
"==================================================",
"++++++++++++++++++++++++++++++++++++++++++++++++++",
"                                                  ",
" ================================================ ",
" ================================================ ",
" ================================================ ",
" ================================================ ",
" ================================================ ",
" ================================================ ",
" ================================================ ",
" ================================================ ",
" ================================================ ",
" ================================================ ",
" ================================================ ",
" ================================================ ",
" ================================================ ",
"                                                  "};
