/* XPM */
static char * simple_back_window_xpm[] = {
"50 50 9 1",
" 	c #000000",
".	c #F9F2F2",
"+	c #C3CFD4",
"@	c #85D7F9",
"#	c #F5F9F6",
"$	c #050505",
"%	c #1E3A22",
"&	c #9CA4A8",
"*	c #4D4B4B",
"                                                  ",
"..................................................",
"..................................................",
"..................................................",
"                                                  ",
"++++++++++++++++++++++++++++++++++++++++++++++++++",
"++++++++++++++++++++++++++++++++++++++++++++++++++",
"++++++++++++++++++++++++++++++++++++++++++++++++++",
"++++++++++++++++++++++++++++++++++++++++++++++++++",
"++++++++++++++++++++++++++++++++++++++++++++++++++",
"++++++++++++++++++++++++++++++++++++++++++++++++++",
"+++++++                                    +++++++",
"+++++++ @##@@@#####@@@@##@@@##@@@######@#@ +++++++",
"+++++++                               $    +++++++",
"+++++++ ###@@######@@@####@@@####@@@###@@@ +++++++",
"+++++++                                    +++++++",
"+++++++ %%%%%%%%%%%%%%%%%%%%%%%%%%%%%%%%%% +++++++",
"+++++++                                    +++++++",
"+++++++ %%%%%%%%%%%%%%%%%%%%%%%%%%%%%%%%%% +++++++",
"+++++++                                    +++++++",
"+++++++ %%%%%%%%%%%%%%%%%%%%%%%%%%%%%%%%%% +++++++",
"+++++++                                    +++++++",
"+++++++&&&&&&&&&&&&&&&&&&&&&&&&&&&&&&&&&&&&+++++++",
"++++++++++++++++++++++++++++++++++++++++++++++++++",
"++++++++++++++++++++++++++++++++++++++++++++++++++",
"++++++++++++++++++++++++++++++++++++++++++++++++++",
"++++++++++++++++++++++++++++++++++++++++++++++++++",
"++++++++++++++++++++++++++++++++++++++++++++++++++",
"++++++++++++++++++++++++++++++++++++++++++++++++++",
"++++++++++++++++++++++++++++++++++++++++++++++++++",
"++++++++++++++++++++++++++++++++++++++++++++++++++",
"++++++++++++++++++++++++++++++++++++++++++++++++++",
"++++++++++++++++++++++++++++++++++++++++++++++++++",
"**************************************************",
"++++++++++++++++++++++++++++++++++++++++++++++++++",
"                                                  ",
" ************************************************ ",
" ************************************************ ",
" ************************************************ ",
" ************************************************ ",
" ************************************************ ",
" ************************************************ ",
" ************************************************ ",
" ************************************************ ",
" ************************************************ ",
" ************************************************ ",
" ************************************************ ",
" ************************************************ ",
" ************************************************ ",
"                                                  "};
