/* XPM */
static char * straight_xpm[] = {
"50 50 3 1",
" 	c #B7C6C7",
".	c #000000",
"+	c #FFFFFF",
"                       ......                     ",
"                       .++++.                     ",
"                       .++++.                     ",
"                       .++++.                     ",
"                       .++++.                     ",
"                       .++++.                     ",
"                       .++++.                     ",
"                       .++++.                     ",
"                       .++++.                     ",
"                       .++++.                     ",
"                       .++++.                     ",
"                       .++++.                     ",
"                       .++++.                     ",
"                       ......                     ",
"                       .++++.                     ",
"                       .++++.                     ",
"                       .++++.                     ",
"                       .++++.                     ",
"                       .++++.                     ",
"                       .++++.                     ",
"                       .++++.                     ",
"                       .++++.                     ",
"                       .++++.                     ",
"                       .++++.                     ",
"                       .++++.                     ",
"                       .++++.                     ",
"                       .++++.                     ",
"                       .++++.                     ",
"                       .++++.                     ",
"                       .++++.                     ",
"                       .++++.                     ",
"                       .++++.                     ",
"                       .++++.                     ",
"                       .++++.                     ",
"                       .++++.                     ",
"                       ......                     ",
"                       .++++.                     ",
"                       .++++.                     ",
"                       .++++.                     ",
"                       .++++.                     ",
"                       .++++.                     ",
"                       .++++.                     ",
"                       .++++.                     ",
"                       .++++.                     ",
"                       .++++.                     ",
"                       .++++.                     ",
"                       .++++.                     ",
"                       .++++.                     ",
"                       .++++.                     ",
"                       ......                     "};
